<?xml version="1.0" standalone="no"?>
<!DOCTYPE svg PUBLIC "-//W3C//DTD SVG 20010904//EN"
 "http://www.w3.org/TR/2001/REC-SVG-20010904/DTD/svg10.dtd">
<svg version="1.0" xmlns="http://www.w3.org/2000/svg"
 width="275.000000pt" height="275.000000pt" viewBox="0 0 275.000000 275.000000"
 preserveAspectRatio="xMidYMid meet">
<metadata>
Created by potrace 1.14, written by Peter Selinger 2001-2017
</metadata>
<g transform="translate(0.000000,275.000000) scale(0.100000,-0.100000)"
fill="#000000" stroke="none">
<path d="M2045 2104 c-11 -2 -71 -14 -133 -26 -62 -12 -111 -25 -110 -29 2 -3
38 -34 80 -67 69 -55 136 -126 194 -206 l21 -29 31 114 c42 155 49 211 27 232
-16 16 -61 20 -110 11z"/>
<path d="M1611 1979 c-161 -81 -327 -224 -429 -372 -96 -140 -182 -353 -198
-491 l-6 -51 64 -63 65 -63 104 21 c361 74 658 301 824 630 l28 55 -27 50
c-58 112 -182 237 -295 298 l-49 27 -81 -41z m175 -233 c27 -27 34 -42 34 -72
0 -91 -80 -145 -156 -108 -79 39 -95 127 -32 186 24 22 40 28 75 28 38 0 50
-5 79 -34z"/>
<path d="M832 1478 c-141 -132 -258 -251 -271 -275 -6 -12 -11 -31 -11 -43 0
-30 44 -70 77 -70 36 0 274 57 283 67 4 4 14 37 24 73 9 36 38 116 63 178 25
63 41 117 37 121 -13 12 -74 31 -96 31 -11 0 -59 -37 -106 -82z"/>
<path d="M1501 980 c-63 -30 -178 -70 -257 -90 -42 -10 -42 -11 -57 -78 -41
-182 -49 -231 -43 -255 8 -32 56 -60 89 -52 13 4 103 84 200 178 163 158 177
175 177 207 0 35 -28 120 -39 120 -3 -1 -35 -14 -70 -30z"/>
<path d="M876 957 c-79 -82 -145 -199 -132 -232 14 -38 133 11 228 95 68 59
69 72 11 131 -26 27 -52 49 -57 49 -5 0 -28 -19 -50 -43z"/>
</g>
</svg>
